<svg viewBox="0 0 24 24">
  <path
    d="M12 0c6.628.0 12 5.508 12 12.304.0 5.434-3.434 10.045-8.2 11.673-.608.121-.824-.263-.824-.59.0-.406.014-1.73.014-3.377.0-1.147-.384-1.896-.814-2.278 2.672-.304 5.48-1.345 5.48-6.07.0-1.344-.466-2.441-1.236-3.303.125-.31.536-1.562-.118-3.257.0.0-1.005-.33-3.296 1.262A11.275 11.275.0 0012 5.95a11.25 11.25.0 00-3.004.414c-2.293-1.592-3.3-1.262-3.3-1.262-.652 1.695-.24 2.946-.117 3.257-.767.862-1.236 1.959-1.236 3.303.0 4.713 2.802 5.77 5.467 6.08-.343.307-.654.85-.762 1.645-.684.315-2.422.858-3.492-1.022.0.0-.635-1.182-1.84-1.269.0.0-1.17-.015-.081.748.0.0.786.378 1.332 1.8.0.0.704 2.196 4.043 1.452.006 1.028.016 1.998.016 2.29.0.326-.22.706-.82.592C3.439 22.352.0 17.74.0 12.304.0 5.508 5.374.0 12 0"
    fill="currentcolor" fill-rule="nonzero"></path>
</svg>
