<svg viewBox="0 0 16 16">
  <path
    d="M14.222.0H1.778C.796.0.0.796.0 1.778v12.444C0 15.204.796 16 1.778 16h12.444c.982.0 1.778-.796 1.778-1.778V1.778C16 .796 15.204.0 14.222.0zM5.333 12.444H3.091V6.222h2.242v6.222zm-1.16-7.362c-.686.0-1.144-.457-1.144-1.067.0-.61.457-1.067 1.219-1.067.685.0 1.143.457 1.143 1.067s-.457 1.067-1.219 1.067zm9.16 7.362h-2.17v-3.4c0-.94-.579-1.158-.796-1.158-.217.0-.94.145-.94 1.158v3.4H7.184V6.222h2.243v.869c.289-.507.867-.869 1.953-.869 1.085.0 1.953.869 1.953 2.822v3.4z"
    fill="currentcolor" fill-rule="nonzero"></path>
</svg>
