<svg width="53" height="57" viewBox="0 0 53 57" fill="none" xmlns="http://www.w3.org/2000/svg">
<path d="M52.2344 25.0185C52.1347 24.0659 51.9853 22.9629 51.6863 21.7596C51.3874 20.5563 50.8891 19.2527 50.2414 17.8489C49.5439 16.4952 48.6968 15.0412 47.5509 13.6875C47.1025 13.136 46.6042 12.6346 46.106 12.0831C46.9032 8.92445 45.1593 6.1669 45.1593 6.1669C42.12 5.96635 40.2267 7.1195 39.5291 7.62088C39.4295 7.57074 39.28 7.5206 39.1803 7.47047C38.6821 7.26992 38.134 7.06937 37.586 6.86882C37.0379 6.71841 36.4898 6.51786 35.9417 6.41758C35.3937 6.26717 34.7958 6.1669 34.1979 6.06662C34.0982 6.06662 33.9986 6.01648 33.8989 6.01648C32.6035 1.80495 28.8168 0 28.8168 0C24.4821 2.80769 23.6351 6.56799 23.6351 6.56799C23.6351 6.56799 23.6351 6.66827 23.5853 6.76854C23.3361 6.81868 23.1368 6.91896 22.8877 6.96909C22.5888 7.06937 22.24 7.16964 21.941 7.32005C21.6421 7.47047 21.2933 7.57074 20.9944 7.72115C20.3467 8.02198 19.7488 8.3228 19.1011 8.67376C18.5032 9.02472 17.9053 9.37569 17.3572 9.77678C17.2575 9.72665 17.2077 9.67651 17.2077 9.67651C11.3782 7.42033 6.19649 10.1277 6.19649 10.1277C5.74807 16.3949 8.53824 20.3056 9.08632 21.0076C8.93684 21.4087 8.83719 21.7596 8.68772 22.1607C8.2393 23.5646 7.94035 25.0185 7.74105 26.5227C7.69123 26.7232 7.69123 26.9739 7.6414 27.1744C2.26035 29.8317 0.665965 35.3468 0.665965 35.3468C5.15018 40.5611 10.4316 40.8619 10.4316 40.8619C11.0793 42.0652 11.8765 43.2184 12.7235 44.2713C13.0723 44.7225 13.4709 45.1236 13.8695 45.5749C12.2253 50.2878 14.1186 54.2486 14.1186 54.2486C19.1509 54.4492 22.4393 52.0426 23.1368 51.4911C23.6351 51.6415 24.1333 51.7919 24.6316 51.9423C26.1761 52.3434 27.7705 52.5941 29.3151 52.6442C29.7137 52.6442 30.1123 52.6442 30.5109 52.6442H30.7102H30.8596H31.1088H31.3579C33.6996 56.0536 37.8849 56.5048 37.8849 56.5048C40.8246 53.3461 41.0239 50.2878 41.0239 49.5858C41.0239 49.5858 41.0239 49.5858 41.0239 49.5357C41.0239 49.4856 41.0239 49.4354 41.0239 49.4354C41.0239 49.3853 41.0239 49.3352 41.0239 49.285C41.6217 48.8338 42.2196 48.3826 42.8175 47.8812C44.0133 46.8283 45.0098 45.5749 45.9067 44.2713C46.0063 44.171 46.0561 44.0206 46.1558 43.9203C49.494 44.1209 51.8358 41.8146 51.8358 41.8146C51.2877 38.3049 49.2947 36.6003 48.8961 36.2994C48.8961 36.2994 48.8961 36.2994 48.8463 36.2493L48.7965 36.1992L48.7467 36.149C48.7467 35.9485 48.7965 35.7479 48.7965 35.4973C48.8463 35.0962 48.8463 34.7452 48.8463 34.3441V34.0433V33.8929V33.8427C48.8463 33.7424 48.8463 33.7926 48.8463 33.7424V33.4918V33.1909C48.8463 33.0907 48.8463 32.9904 48.8463 32.8901C48.8463 32.7898 48.8463 32.6896 48.7965 32.5893L48.7467 32.2885L48.6968 31.9876C48.647 31.5865 48.5474 31.2356 48.4975 30.8345C48.1488 29.3304 47.5509 27.8764 46.8035 26.6229C46.0063 25.3194 45.0596 24.2163 43.9635 23.2136C42.8674 22.261 41.6716 21.4588 40.3761 20.9073C39.0807 20.3056 37.7853 19.9547 36.44 19.8043C35.7923 19.704 35.0947 19.704 34.447 19.704H34.1979H34.1481H34.0484H33.9488H33.6996C33.6 19.704 33.5003 19.704 33.4505 19.704C33.1017 19.7541 32.753 19.8043 32.454 19.8544C31.1088 20.1051 29.8632 20.6065 28.767 21.2582C27.6709 21.91 26.7242 22.7624 25.927 23.715C25.1298 24.6676 24.5319 25.6703 24.1333 26.7733C23.7347 27.8262 23.4856 28.9794 23.4358 30.0323C23.4358 30.283 23.4358 30.5838 23.4358 30.8345C23.4358 30.8846 23.4358 30.9849 23.4358 31.035V31.2356C23.4358 31.386 23.4358 31.4863 23.4856 31.6367C23.5354 32.1882 23.6351 32.6896 23.7846 33.1909C24.0835 34.1937 24.5319 35.0961 25.1298 35.8983C25.7277 36.7005 26.3754 37.3022 27.1228 37.8036C27.8702 38.3049 28.6175 38.6559 29.4147 38.9066C30.2119 39.1573 30.9593 39.2575 31.6568 39.2074C31.7565 39.2074 31.8561 39.2074 31.906 39.2074C31.9558 39.2074 32.0056 39.2074 32.0554 39.2074C32.1053 39.2074 32.1551 39.2074 32.2049 39.2074C32.3046 39.2074 32.3544 39.2074 32.454 39.2074H32.5039H32.5537C32.6035 39.2074 32.6533 39.2074 32.7032 39.2074C32.8028 39.2074 32.9024 39.1573 32.9523 39.1573C33.0519 39.1573 33.1017 39.1071 33.2014 39.1071C33.3509 39.057 33.5502 39.0069 33.6996 38.9567C33.9986 38.8565 34.2975 38.706 34.5965 38.6058C34.8954 38.4554 35.1446 38.3049 35.3439 38.1545C35.3937 38.1044 35.4933 38.0543 35.5432 38.0041C35.7923 37.8036 35.8421 37.4526 35.6428 37.2019C35.4435 37.0014 35.1446 36.9512 34.8954 37.0515C34.8456 37.1016 34.7958 37.1016 34.6961 37.1518C34.4968 37.2521 34.2477 37.3523 34.0484 37.4025C33.7993 37.4526 33.5502 37.5529 33.3011 37.603C33.1516 37.603 33.0519 37.6532 32.9025 37.6532C32.8526 37.6532 32.753 37.6532 32.7032 37.6532C32.6533 37.6532 32.5537 37.6532 32.5039 37.6532C32.454 37.6532 32.3544 37.6532 32.3046 37.6532C32.2049 37.6532 32.1551 37.6532 32.0554 37.6532H32.0056H31.9558C31.906 37.6532 31.906 37.6532 31.8561 37.6532C31.8063 37.6532 31.7067 37.6532 31.6568 37.603C31.1088 37.5027 30.5109 37.3523 29.9628 37.1016C29.4147 36.851 28.8667 36.5 28.4182 36.0488C27.92 35.5975 27.5214 35.0962 27.1726 34.4945C26.8239 33.8929 26.6246 33.2411 26.5249 32.5893C26.4751 32.2383 26.4253 31.8874 26.4751 31.5364C26.4751 31.4361 26.4751 31.3358 26.4751 31.2356V31.1854V31.1353C26.4751 31.0852 26.4751 31.035 26.4751 30.9849C26.4751 30.7843 26.5249 30.6339 26.5747 30.4334C26.8239 28.9293 27.5712 27.4753 28.7172 26.3722C29.0161 26.0714 29.3151 25.8207 29.6639 25.6202C30.0126 25.3695 30.3614 25.169 30.7102 25.0185C31.0589 24.8681 31.4575 24.7177 31.8561 24.6174C32.2547 24.5172 32.6533 24.4169 33.0519 24.4169C33.2512 24.4169 33.4505 24.3668 33.6498 24.3668C33.6996 24.3668 33.7495 24.3668 33.7993 24.3668H33.9488H34.0484H34.0982H34.2477C34.6961 24.4169 35.1446 24.467 35.5432 24.5673C36.3902 24.7679 37.2372 25.0687 38.0344 25.5199C39.6288 26.4224 40.974 27.7761 41.7712 29.4306C42.1698 30.2328 42.4688 31.1353 42.6182 32.0879C42.6681 32.3386 42.6681 32.5391 42.7179 32.7898V32.9402V33.0907C42.7179 33.1408 42.7179 33.1909 42.7179 33.2411C42.7179 33.2912 42.7179 33.3413 42.7179 33.3915V33.5419V33.6923C42.7179 33.7926 42.7179 33.9931 42.7179 34.0934C42.7179 34.3441 42.6681 34.5948 42.6681 34.8455C42.6182 35.0961 42.6182 35.3468 42.5684 35.5975C42.5186 35.8482 42.4688 36.0989 42.4189 36.3496C42.3193 36.851 42.12 37.3022 41.9705 37.8036C41.6218 38.7562 41.1235 39.6586 40.5256 40.4608C39.3298 42.1154 37.6856 43.4691 35.8421 44.3214C34.8954 44.7225 33.9488 45.0735 32.9523 45.2239C32.454 45.3242 31.9558 45.3743 31.4575 45.3743H31.3579H31.2582H31.1088H30.8596H30.7102H30.6603C30.4112 45.3743 30.1123 45.3743 29.8632 45.3242C28.767 45.2239 27.7207 45.0233 26.6744 44.7225C25.6281 44.4217 24.6316 44.0206 23.6849 43.5192C21.7916 42.5165 20.0975 41.0625 18.7523 39.408C18.1046 38.5556 17.5067 37.6532 17.0084 36.7005C16.5102 35.7479 16.1614 34.7452 15.8625 33.7424C15.5635 32.7397 15.414 31.6868 15.3642 30.6339V30.4334V30.3832V30.3331V30.2328V30.0824V30.0323V29.9821V29.8819V29.6312V29.581V29.4808C15.3642 29.3304 15.3642 29.2301 15.3642 29.0797C15.3642 28.5783 15.414 28.0268 15.5137 27.4753C15.5635 26.9238 15.6632 26.4224 15.7628 25.8709C15.8625 25.3194 16.0119 24.818 16.1614 24.2665C16.4604 23.2136 16.8091 22.2109 17.2575 21.2582C18.1544 19.353 19.3003 17.6483 20.6456 16.2946C20.9944 15.9437 21.3432 15.6429 21.7418 15.342C21.8912 15.1916 22.24 14.8908 22.6386 14.6401C23.0372 14.3894 23.4358 14.1387 23.8842 13.9382C24.0835 13.8379 24.2828 13.7376 24.5319 13.6374C24.6316 13.5872 24.7312 13.5371 24.8807 13.4869C24.9803 13.4368 25.08 13.3867 25.2295 13.3365C25.6779 13.136 26.1263 12.9856 26.5747 12.8352C26.6744 12.785 26.8239 12.785 26.9235 12.7349C27.0232 12.6848 27.1726 12.6848 27.2723 12.6346C27.5214 12.5845 27.7207 12.5343 27.9698 12.4341C28.0695 12.3839 28.2189 12.3839 28.3186 12.3338C28.4182 12.3338 28.5677 12.2837 28.6674 12.2837C28.767 12.2837 28.9165 12.2335 29.0161 12.2335L29.2154 12.1834L29.4147 12.1332C29.5144 12.1332 29.6639 12.0831 29.7635 12.0831C29.913 12.0831 30.0126 12.033 30.1621 12.033C30.2618 12.033 30.461 11.9828 30.5607 11.9828C30.6603 11.9828 30.7102 11.9828 30.8098 11.9327H30.9593H31.0589H31.1586C31.3081 11.9327 31.4077 11.9327 31.5572 11.8826H31.7565H31.8063H31.906C32.0056 11.8826 32.1551 11.8826 32.2547 11.8826C32.7032 11.8826 33.1516 11.8826 33.6 11.8826C34.4968 11.9327 35.3937 12.033 36.2407 12.1834C37.9347 12.4842 39.5789 13.0357 41.0239 13.7878C42.4688 14.4897 43.814 15.3922 44.9102 16.3448C44.96 16.3949 45.0596 16.4451 45.1095 16.5453C45.1593 16.5955 45.2589 16.6456 45.3088 16.7459C45.4582 16.8462 45.5579 16.9966 45.7074 17.0968C45.8568 17.1971 45.9565 17.3475 46.106 17.4478C46.2056 17.5982 46.3551 17.6985 46.4547 17.8489C46.953 18.3503 47.4014 18.9018 47.8 19.4032C48.5972 20.456 49.2449 21.5089 49.7432 22.5117C49.793 22.5618 49.793 22.6119 49.8428 22.7122C49.8926 22.7624 49.8926 22.8125 49.9425 22.9128C49.9923 23.013 50.0421 23.1635 50.1417 23.2637C50.1916 23.364 50.2414 23.5144 50.2912 23.6147C50.341 23.715 50.3909 23.8654 50.4407 23.9657C50.64 24.4169 50.7895 24.8681 50.9389 25.3194C51.1881 26.0213 51.3375 26.6229 51.487 27.1243C51.5368 27.3249 51.7361 27.4753 51.9354 27.4753C52.1846 27.4753 52.334 27.2747 52.334 27.024C52.2842 26.4224 52.2842 25.7706 52.2344 25.0185Z" fill="url(#paint0_linear_24_57)"/>
<defs>
<linearGradient id="paint0_linear_24_57" x1="26.5" y1="69.2451" x2="26.5" y2="17.6777" gradientUnits="userSpaceOnUse">
<stop stop-color="#FCEE1F"/>
<stop offset="1" stop-color="#F15B2A"/>
</linearGradient>
</defs>
</svg>
