<svg width="16" height="16" viewBox="0 0 16 16" fill="none" xmlns="http://www.w3.org/2000/svg">
    <path fill-rule="evenodd" clip-rule="evenodd" d="M12.8 13.867c.59 0 1.067-.478 1.067-1.067V3.2c0-.59-.478-1.067-1.067-1.067H3.2c-.59 0-1.067.478-1.067 1.067v3.733a.533.533 0 0 0 1.067 0V3.2h9.6v9.6H9.067a.533.533 0 0 0 0 1.067H12.8zM9.6 6.933v3.2a.533.533 0 1 1-1.067 0V8.221l-5.49 5.49a.533.533 0 0 1-.753-.755l5.49-5.49H5.866a.533.533 0 1 1 0-1.066h3.2a.532.532 0 0 1 .533.53" fill="#fff"/>
</svg>
