<svg width="25" height="24" viewBox="0 0 25 24" xmlns="http://www.w3.org/2000/svg">
    <g stroke="currentColor" stroke-width="1.5" fill="none" fill-rule="evenodd" stroke-linecap="round"
        stroke-linejoin="round">
        <path
            d="M12.024 21V6.167s-2.127-2.323-9.3-2.417a.443.443 0 0 0-.45.442v13.95a.442.442 0 0 0 .434.441C9.895 18.68 12.024 21 12.024 21" />
        <path
            d="M9.425 11.677a18.705 18.705 0 0 0-4.56-.9M9.425 15.25a18.705 18.705 0 0 0-4.56-.899M14.624 11.677a18.705 18.705 0 0 1 4.56-.9M14.624 15.25a18.705 18.705 0 0 1 4.56-.899" />
        <path
            d="M12.024 21V6.167s2.128-2.323 9.302-2.417a.443.443 0 0 1 .448.442v13.95a.442.442 0 0 1-.433.441C14.154 18.68 12.024 21 12.024 21" />
    </g>
</svg>
